<svg width="137" height="137" viewBox="0 0 137 137" fill="none" xmlns="http://www.w3.org/2000/svg">
<g clip-path="url(#clip0_1_2)">
<path d="M27.74 108.28L4.47 85.01C1.71 82.18 0 78.18 0 74.27C0 72.46 1.02 69.63 1.79 68.01L23.27 23.27L27.74 108.28Z" fill="#01579B"/>
<path d="M107.39 27.74L84.12 4.47C82.09 2.43 77.86 0 74.28 0C71.2 0 68.18 0.62 66.23 1.79L23.28 23.27L107.39 27.74Z" fill="#40C4FF"/>
<path d="M55.48 136.02H111.86V111.86L69.8 98.43L31.32 111.86L55.48 136.02Z" fill="#40C4FF"/>
<path d="M23.27 95.75C23.27 102.93 24.17 104.69 27.74 108.28L31.32 111.86H111.86L72.49 67.12L23.27 23.27V95.75Z" fill="#29B6F6"/>
<path d="M94.86 23.26H23.27L111.86 111.85H136.02V56.37L107.38 27.73C103.36 23.7 99.79 23.26 94.86 23.26Z" fill="#01579B"/>
<path opacity="0.2" d="M28.64 109.17C25.06 105.58 24.17 102.04 24.17 95.75V24.16L23.28 23.27V95.75C23.27 102.04 23.27 103.78 28.64 109.17Z" fill="white"/>
<path opacity="0.2" d="M135.13 55.48V110.96H110.97L111.86 111.86H136.02V56.37L135.13 55.48Z" fill="#263238"/>
<path opacity="0.2" d="M107.39 27.74C102.95 23.3 99.32 23.27 93.97 23.27H23.28L24.17 24.16H93.97C96.64 24.16 103.38 23.71 107.39 27.74Z" fill="white"/>
<path opacity="0.2" d="M135.13 55.48L107.39 27.74L84.12 4.47C82.09 2.43 77.86 0 74.28 0C71.2 0 68.18 0.62 66.23 1.79L23.28 23.27L1.80001 68.01C1.03001 69.64 0.0100098 72.47 0.0100098 74.27C0.0100098 78.18 1.73001 82.17 4.48001 85.01L25.92 106.3C26.43 106.93 27.03 107.57 27.74 108.28L28.63 109.17L31.31 111.85L54.58 135.12L55.47 136.01H110.95H111.84V111.85H136V111.79V56.37L135.13 55.48Z" fill="url(#paint0_radial_1_2)"/>
</g>
<defs>
<radialGradient id="paint0_radial_1_2" cx="0" cy="0" r="1" gradientUnits="userSpaceOnUse" gradientTransform="translate(68.005 68.0072) scale(68 68)">
<stop stop-color="white" stop-opacity="0.1"/>
<stop offset="1" stop-color="white" stop-opacity="0"/>
</radialGradient>
<clipPath id="clip0_1_2">
<rect width="136.1" height="136.1" fill="white"/>
</clipPath>
</defs>
</svg>
